<svg xmlns="http://www.w3.org/2000/svg" viewBox="0 0 59 58.73"><defs><style>.cls-1{fill:none;stroke:#ffe282;stroke-miterlimit:10;stroke-width:3px;}.cls-2{fill:#ffe282;}</style></defs><title>資產 1</title><g id="圖層_2" data-name="圖層 2"><g id="圖層_1-2" data-name="圖層 1"><rect class="cls-1" x="1.5" y="1.5" width="56" height="55.73"/><path class="cls-2" d="M40.76,33c-4.51,0-8.17,3.08-8.17,6.88a6.29,6.29,0,0,0,2,4.51l-1.3,3.51,6.81-1.16.66,0c4.51,0,8.16-3.08,8.16-6.88S45.27,33,40.76,33Z"/><path class="cls-2" d="M30.86,39.79a7.18,7.18,0,0,1,.37-2.22H22.94V34.64H33a10.56,10.56,0,0,1,7.18-3.16V18.3a2.37,2.37,0,0,0-2.37-2.37H21.23a2.37,2.37,0,0,0-2.37,2.37V40.44a2.37,2.37,0,0,0,2.37,2.37h10.3A7.2,7.2,0,0,1,30.86,39.79ZM22.94,21.17H36.1v2.92H22.94Zm0,6.74H36.1v2.92H22.94Z"/></g></g></svg>