<svg xmlns="http://www.w3.org/2000/svg" viewBox="0 0 41 41"><defs><style>.cls-1{fill:#1a1a1a;stroke:#ffe181;stroke-miterlimit:10;opacity:0.9;}.cls-2{fill:#ffe181;}</style></defs><title>資產 1</title><g id="圖層_2" data-name="圖層 2"><g id="圖層_1-2" data-name="圖層 1"><rect class="cls-1" x="0.5" y="0.5" width="40" height="40"/><path class="cls-2" d="M28.19,13.83l-.66-2.12H23V10.54a.58.58,0,0,0-.6-.55h-4a.58.58,0,0,0-.6.55v1.17H13.47l-.66,2.12Zm-9.76-2.12v-.87a.32.32,0,0,1,.34-.3h3.3a.31.31,0,0,1,.33.3v.87Z"/><path class="cls-2" d="M13.47,14.49,14.61,29a2,2,0,0,0,2,2h7.89a2,2,0,0,0,2-2L27.7,14.49Zm4.17,15.29a.74.74,0,0,1-.74-.73l-1-12.68a.74.74,0,1,1,1.47,0l1,12.68A.73.73,0,0,1,17.64,29.78Zm3.68-.73a.74.74,0,0,1-1.47,0V16.37a.74.74,0,1,1,1.47,0Zm2.78,0a.74.74,0,0,1-1.47,0l1.14-12.68a.74.74,0,1,1,1.47,0Z"/></g></g></svg>