<svg xmlns="http://www.w3.org/2000/svg" viewBox="0 0 27.36 30.79"><defs><style>.cls-1{fill:#fff;}</style></defs><title>資產 3</title><g id="圖層_2" data-name="圖層 2"><g id="圖層_1-2" data-name="圖層 1"><rect class="cls-1" x="17.59" y="14.96" width="3.37" height="14.97" transform="translate(21.51 -7.06) rotate(45)"/><polygon class="cls-1" points="10.92 30.79 14.63 29.34 12.38 27.09 10.92 30.79"/><rect class="cls-1" x="24.33" y="15.01" width="2.69" height="2.07" transform="translate(18.86 -13.46) rotate(45)"/><path class="cls-1" d="M20.09,17.17V2a2,2,0,0,0-2-2H2A2,2,0,0,0,0,2V23.35a2,2,0,0,0,2,2h9.92ZM3.84,4.94H16.25V7.7H3.84Zm0,6.35H16.25v2.76H3.84Zm0,6.36H16.25v2.76H3.84Z"/></g></g></svg>