<svg xmlns="http://www.w3.org/2000/svg" viewBox="0 0 24.28 25.85"><defs><style>.cls-1{fill:#fff;}</style></defs><title>資產 1</title><g id="圖層_2" data-name="圖層 2"><g id="圖層_1-2" data-name="圖層 1"><path class="cls-1" d="M17.69,13.82c-3.65,0-6.6,2.49-6.6,5.55A5,5,0,0,0,12.71,23l-1.05,2.84,5.5-.94.53,0c3.64,0,6.59-2.49,6.59-5.56S21.33,13.82,17.69,13.82Z"/><path class="cls-1" d="M9.69,19.28a5.66,5.66,0,0,1,.3-1.8H3.29V15.12h8.12a8.51,8.51,0,0,1,5.8-2.56V1.91A1.91,1.91,0,0,0,15.3,0H1.91A1.92,1.92,0,0,0,0,1.91V19.8a1.91,1.91,0,0,0,1.91,1.91h8.33A5.73,5.73,0,0,1,9.69,19.28Zm-6.4-15H13.92V6.6H3.29Zm0,5.44H13.92V12H3.29Z"/></g></g></svg>